<svg id="Layer_1" data-name="Layer 1" xmlns="http://www.w3.org/2000/svg" viewBox="0 0 1080 1080"><circle cx="538.86" cy="546.95" r="521.86" style="fill:#232323;isolation:isolate"/><g style="isolation:isolate"><path d="M537.37,186.32A359.37,359.37,0,1,1,397,214.65a358.38,358.38,0,0,1,140.37-28.33m0-18.5C328,167.82,158.24,337.56,158.24,547S328,926.07,537.37,926.07,916.5,756.33,916.5,547,746.76,167.82,537.37,167.82Z" style="fill:#fff"/></g><g style="isolation:isolate"><path d="M535.89,920.29c-45.47,0-89.07-22.38-126.08-64.72C374.48,815.14,347.22,759,331,693.26l18-4.44c15.55,62.91,41.42,116.36,74.81,154.57s72.17,58.4,112.15,58.4S614.61,881.6,648,843.39s59.28-91.66,74.85-154.57l18,4.44C724.54,759,697.26,815.15,661.93,855.57,624.93,897.91,581.34,920.29,535.89,920.29Z" style="fill:#fff"/></g><g style="isolation:isolate"><path d="M723.51,413.21c-15.09-64.83-40.91-119.16-74.66-157.13-33-37.11-72.06-56.73-113-56.73s-80,19.62-113,56.73c-33.76,38-59.56,92.3-74.63,157.13L330,409c15.77-67.88,43-125.06,78.88-165.36,36.67-41.24,80.6-63,127-63s90.34,21.8,127,63C698.72,283.9,726,341.08,741.81,409Z" style="fill:#fff"/></g><rect x="198.22" y="395.79" width="674.66" height="18.5" style="fill:#fff"/><rect x="202.85" y="683.23" width="670.04" height="18.5" style="fill:#fff"/><rect x="278.18" y="798.21" width="521.36" height="18.5" style="fill:#fff"/><rect x="270.25" y="284.78" width="533.92" height="18.5" style="fill:#fff"/><rect x="528.63" y="196.91" width="18.5" height="212.91" style="fill:#fff"/><rect x="528.63" y="686.71" width="18.5" height="215.23" style="fill:#fff"/><g style="isolation:isolate"><path d="M279.27,659.57V616.68h20.15V501.21H279.27V458.48H386.56v42.73H366.4V616.68h20.16v42.89Z" style="fill:#661514"/><path d="M539.91,659.57V584.26h-87L412.62,544V498.64l40.31-40.16h22.73v71.37H568.1L607,570.16v49.25l-40.15,40.16Zm-93.5,0-33.79-40.16V599.26h67V623.2h49.7v36.37Zm93.5-144.72V494.7H486.27V458.48h80.46l34.86,35v21.37Z" style="fill:#661514"/><path d="M616.59,659.57l71.83-192,29.7,79.86L681.3,659.57Zm156.84,0-8.48-22H699.18l13.94-39.86h36.37l-53.8-139.26H761l80.16,201.09Z" style="fill:#661514"/></g><path d="M264.57,646.52V603.64h20.16V488.17H264.57V445.43H371.86v42.74H351.71V603.64h20.15v42.88Z" style="fill:#fff"/><path d="M525.22,646.52V571.21h-87L397.93,530.9V485.59l40.31-40.16H461v71.38h92.44l38.94,40.31v49.25l-40.16,40.15Zm-93.5,0-33.79-40.15V586.21h67v23.95h49.7v36.36Zm93.5-144.71V481.65H471.58V445.43H552l34.86,35v21.37Z" style="fill:#fff"/><path d="M601.9,646.52l71.83-192,29.7,79.86L666.6,646.52Zm156.84,0-8.49-22H684.49l13.94-39.85H734.8L681,445.43h65.31l80.17,201.09Z" style="fill:#fff"/><circle cx="823.82" cy="458.16" r="24.28" style="fill:none;stroke:#fff;stroke-miterlimit:10;stroke-width:3.02165854650139px;isolation:isolate"/><path d="M812.54,465.87v-12h-4.71v-2.23h12.06v2.23h-4.71v12Z" style="fill:#fff"/><path d="M821.88,465.87v-14.2h2.17L830.26,462h-1.14l6.11-10.37h2.17l0,14.2h-2.49l0-10.29h.52l-5.19,8.67h-1.18l-5.27-8.67h.6v10.29Z" style="fill:#fff"/><polygon points="90.69 503.52 104.8 532.11 136.35 536.7 113.52 558.95 118.91 590.38 90.69 575.54 62.47 590.38 67.86 558.95 45.03 536.7 76.58 532.11 90.69 503.52" style="fill:#fff"/><polygon points="983.64 503.52 997.75 532.11 1029.31 536.7 1006.48 558.95 1011.87 590.38 983.64 575.54 955.42 590.38 960.81 558.95 937.98 536.7 969.53 532.11 983.64 503.52" style="fill:#fff"/><path d="M203.43,285.62l-8.61-7.19,3.37-4.05L175,255l-3.38,4L163,251.92l18-21.55,8.59,7.16-3.38,4.05,23.2,19.35,3.37-4.05,8.62,7.19Z" style="fill:#fff"/><path d="M255,230.64l-59.09-17,13.6-12.55L268.73,218Zm-23.41,21.62-32.3-35,28.18,8,15.33,16.6Zm33.71-37.93-28.26-8.11-15.24-16.51,11.21-10.35Z" style="fill:#fff"/><path d="M256.15,175.79l-6.47-9.45,37.68-25.8,6.47,9.45ZM290.72,202,269,170.29l15-10.3,21.7,31.7Z" style="fill:#fff"/><path d="M328.85,177l-23.42-47.1,15.68-7.8,9.29,18.67,15-7.47,4.52,9.08-15,7.47,9.62,19.34Zm11.29-47.36-2.25-4.51L328.13,130l-4.53-9.12,24.52-12.2,6.78,13.63ZM347,168l-4.67-9.41,8.83-4.39-2.34-4.72,15.68-7.81,7,14.13Z" style="fill:#fff"/><path d="M385.26,150.11,369.12,100l16.67-5.37,16.14,50.06Zm14.47-21.25-3.12-9.69,12.52-4-4.95-15.35-12.52,4-3.23-10,19.05-6.15,13.26,6.77,4.84,15-5.26,10.28,15,14.22-17.81,5.74L405.62,127Z" style="fill:#fff"/><path d="M479.59,126.2,440,79.16l18.29-2.86,39.74,47Zm-31.49,4.93-7.36-47,18.94,22.35,3.5,22.33Zm49.12-12.75-19-22.47-3.48-22.2,15.07-2.36Z" style="fill:#fff"/><path d="M509.29,122.12l18.82-50.21,7.76,20.89-9.65,29.33Zm41,0-2.22-5.75H530.9L534.55,106h9.51L530,69.53H547.1L568,122.15Z" style="fill:#fff"/><path d="M575.62,81.92l1.47-11.36,45.29,5.85-1.47,11.36ZM584,124.48l4.92-38.09L607,88.73,602,126.82Z" style="fill:#fff"/><path d="M629.14,131.68l2.75-10.88,5.11,1.29,7.39-29.28-5.11-1.29L642,80.68l27.21,6.86-2.73,10.84-5.11-1.29L654,126.38l5.11,1.29-2.75,10.87Z" style="fill:#fff"/><path d="M680,146l-6.11-13.66L685.35,103l13.75-5.9L711.65,102l-3.88,9.93-6.13-2.4-11.37,29.09,6.13,2.4-3.9,10ZM695.09,152,699,142l6.24,2.44,11.37-29.09-6.23-2.44,3.88-9.93,12.66,5L733,121.57,721.47,151l-13.72,5.92Z" style="fill:#fff"/><path d="M730.86,167.17,754.76,126l.64,29.29-11.35,19.54Zm27.56,16-1.15-61.49,16,9.3,1.25,61.54Zm18.62,5-.58-29.4,11.28-19.44,13.2,7.67Z" style="fill:#fff"/><path d="M784.05,198.7l46.23-27.16-7.12,21.11-26,16.71Zm31.86,25.85,1.9-5.87-13.36-10.83,9.4-5.8,7.39,6,12-37.15,13.27,10.76-16.86,54.06Z" style="fill:#fff"/><path d="M837.63,244.07l38.72-35.61,11.86,12.9L849.49,257ZM851.37,259l7.73-7.11,5.87,6.39,4.91-4.5,10.76,11.69L868,277.09Z" style="fill:#fff"/><path d="M117.61,779.12l4.46-13,4.52-2.71,9,15-5.37,3.22,6.68,11.15-8.15,4.89Zm12.57,21L147.08,790l-11.7-19.52L139,756l10.16-6.09,14.43,3.64,3.06,5.1-16,9.6L163.07,789l-3.8,14.16-11.05,6.63-14.41-3.61Zm32.47-19.47,4.52-2.71-7.22-12,8.13-4.88,10.82,18.06-3.16,12.52-4.8,2.88Z" style="fill:#fff"/><path d="M152.32,833.55,192.83,800l11,13.24-40.5,33.56Zm23.16,6.75,8.12-6.72,8.11,9.8,13.89-11.51-8.12-9.8,8.09-6.7,12.54,15.14-1.38,14.79-13.89,11.51L188,855.44Z" style="fill:#fff"/><path d="M207.85,895.23l-1-14.93,20.92-23.68,14.94-.81,10.1,8.92-7.06,8-4.93-4.35-20.68,23.4,4.93,4.36-7.08,8ZM220,906l7.09-8,5,4.43L252.81,879l-5-4.44,7.06-8,10.19,9,1,14.91-20.92,23.67-14.92.84Z" style="fill:#fff"/><path d="M256.37,935.69l28.4-44.27,14.75,9.46-28.4,44.27Zm25.6-2.32,5.5-8.57,11.08,7.1,8.71-13.58-11.08-7.1,5.67-8.84,16.85,10.8,3.2,14.54L313.39,941l-11.29,2.46-1.42,20.65L284.93,954l2.25-17.3Z" style="fill:#fff"/><path d="M328.33,977.7l16-34.92,16.58,7.58-16,34.93ZM333,934.59l4.77-10.42,41.52,19-4.77,10.41Z" style="fill:#fff"/><path d="M383.61,1000.38l-5.47-12.59,1.5-5.06,16.79,5-1.78,6,12.46,3.71-2.71,9.12Zm23.44,7,5.62-18.88L390.87,982l-7.1-13.11,3.37-11.36,13.11-7.06,5.69,1.69L400.62,970l23.18,6.89,6.75,13-3.67,12.35-13.06,7.07Zm10.8-36.28,1.5-5.06-13.45-4,2.7-9.08,20.18,6,6.12,11.38-1.59,5.36Z" style="fill:#fff"/><path d="M475.28,1022l22-48.88,6.38,21.36-11.53,28.63Zm40.94,2.7-1.84-5.89-17.17-1.12,4.33-10.17,9.49.63-11.65-37.27,17,1.12,17.46,53.86Z" style="fill:#fff"/><path d="M553.05,1025.12l-4.18-52.43,17.46-1.39,4.18,52.43Zm20.23-1.61-.83-10.47,8.65-.69-.53-6.64,15.84-1.26,1.37,17.11Z" style="fill:#fff"/><path d="M619.67,1018l-11.52-51.32,17.1-3.84,11.52,51.32Zm19.81-4.45-2.3-10.25,8.46-1.9-1.45-6.49,15.51-3.48,3.75,16.74Z" style="fill:#fff"/><path d="M682.91,1001.84l-3.78-10.56,5-1.77L673.9,961.07l-5,1.78-3.77-10.52,26.42-9.47,3.77,10.53-5,1.77,10.18,28.44,5-1.78,3.78,10.56Z" style="fill:#fff"/><path d="M726.36,986.09l-6-53.28,16.4,15.09,4.72,30.51Zm36.56-18.62-4.59-4.11L743,971.16l-1.48-10.94L750,955.9l-29.07-26.08,15.23-7.75,42.55,37.36Z" style="fill:#fff"/><path d="M821,930.41l-56.63-24,15-10.83,56.72,23.92Zm-25.84,18.65-27.86-38.6,27,11.35,13.22,18.32Zm38-33.61L806.06,904,792.9,885.79l12.37-8.93Z" style="fill:#fff"/><path d="M861.09,897.22l-14.88-.07L824,874.67l.12-14.88,5-4.91,36.95,37.44Zm-6.9-37.46-7.43-7.53-8.3,8.18-7.38-7.47,13.29-13.12,14.85.1,7.44,7.53ZM868,890.37l-7.38-7.47,8.3-8.19-5.4-5.47L876,856.93l5.41,5.47-.1,14.86Z" style="fill:#fff"/><path d="M903.65,852.7l-42.1-31.54,10.5-14,16.69,12.5,10-13.42,8.12,6.08-10,13.42,17.29,12.95Zm-11.22-47.38-4-3L881.87,811l-8.15-6.1L890.14,783l12.18,9.12Zm23.38,31.13-8.4-6.3,5.91-7.89-4.21-3.17,10.5-14,12.62,9.46Z" style="fill:#fff"/></svg>